<?xml version="1.0" standalone="no"?>
<!DOCTYPE svg PUBLIC "-//W3C//DTD SVG 20010904//EN"
 "http://www.w3.org/TR/2001/REC-SVG-20010904/DTD/svg10.dtd">
<svg version="1.0" xmlns="http://www.w3.org/2000/svg"
 width="1086.000000pt" height="1280.000000pt" viewBox="0 0 1086.000000 1280.000000"
 preserveAspectRatio="xMidYMid meet">
<metadata>
Created by potrace 1.15, written by Peter Selinger 2001-2017
</metadata>
<g transform="translate(0.000000,1280.000000) scale(0.100000,-0.100000)"
fill="#ffc107" stroke="none">
<path d="M5870 12793 c-14 -2 -86 -14 -160 -28 -74 -13 -220 -34 -325 -45
-476 -51 -594 -97 -805 -309 -206 -207 -366 -436 -529 -761 -242 -478 -341
-835 -506 -1820 -65 -387 -149 -766 -221 -1000 -69 -220 -233 -653 -377 -990
-221 -517 -488 -1036 -725 -1410 -278 -438 -422 -605 -947 -1095 -361 -337
-538 -520 -733 -760 -308 -377 -382 -512 -447 -820 -68 -320 -90 -595 -90
-1125 0 -411 6 -551 45 -1123 17 -260 17 -281 0 -615 -33 -637 -43 -862 -39
-866 6 -7 10530 -28 10536 -22 15 15 115 567 177 976 152 1001 175 1718 70
2190 -81 362 -227 687 -615 1365 -116 204 -263 469 -326 590 -64 121 -197 355
-296 520 -331 549 -412 733 -487 1110 -55 279 -69 498 -80 1264 -6 442 -14
683 -25 789 -18 181 -133 996 -176 1250 -90 535 -201 948 -348 1294 -175 411
-468 824 -818 1150 -118 111 -145 123 -253 122 -441 -7 -405 -9 -555 24 -77
17 -225 51 -330 76 -104 25 -238 52 -296 61 -97 14 -256 18 -319 8z"/>
</g>
</svg>
