<?xml version="1.0" standalone="no"?>
<!DOCTYPE svg PUBLIC "-//W3C//DTD SVG 20010904//EN"
 "http://www.w3.org/TR/2001/REC-SVG-20010904/DTD/svg10.dtd">
<svg version="1.0" xmlns="http://www.w3.org/2000/svg"
 width="960.000000pt" height="1280.000000pt" viewBox="0 0 960.000000 1280.000000"
 preserveAspectRatio="xMidYMid meet">
<metadata>
Created by potrace 1.15, written by Peter Selinger 2001-2017
</metadata>
<g transform="translate(0.000000,1280.000000) scale(0.100000,-0.100000)"
fill="#000000" stroke="none">
<path d="M5585 11554 c-27 -2 -99 -9 -160 -15 -1008 -100 -1930 -612 -2510
-1393 -17 -24 -28 -51 -27 -65 1 -19 -1 -22 -7 -12 -11 17 -7 24 -66 -124 -76
-193 -236 -417 -450 -630 -66 -66 -237 -221 -380 -345 -294 -254 -561 -515
-716 -700 -58 -69 -196 -238 -306 -375 -111 -138 -250 -307 -311 -375 -134
-153 -350 -365 -456 -449 -44 -35 -99 -84 -123 -111 l-43 -48 0 -3456 0 -3456
4780 0 4780 0 0 1350 0 1349 -74 98 c-163 216 -349 388 -607 559 l-156 103
-38 85 c-21 47 -44 86 -51 86 -7 0 -46 34 -88 75 -124 125 -174 252 -162 410
18 230 18 238 -2 271 -11 17 -40 40 -64 52 -56 26 -61 32 -86 117 -44 147
-117 215 -229 215 -89 0 -105 16 -113 116 -3 43 -11 89 -18 101 -18 33 -125
119 -184 149 -27 14 -75 30 -107 35 -31 5 -68 14 -82 20 -39 15 -63 67 -56
118 7 53 -11 54 -19 0 -8 -51 -40 -69 -65 -37 -9 12 -21 18 -27 14 -15 -9 -72
49 -72 74 0 16 -22 72 -35 88 -1 1 -23 -7 -49 -19 -26 -11 -50 -18 -54 -15
-17 17 32 159 71 206 66 78 100 181 99 300 0 94 -16 152 -64 233 -27 46 -30
58 -26 112 6 74 73 275 126 382 22 44 118 183 215 313 97 129 191 264 211 300
47 87 83 217 98 351 11 100 11 112 -4 120 -15 8 -9 25 43 142 181 400 206 498
195 787 -4 91 -9 179 -11 195 -3 17 -14 228 -26 470 -16 344 -25 461 -41 535
-11 52 -21 109 -23 125 -4 35 -147 380 -209 506 -63 126 -110 193 -211 298
-109 113 -377 330 -537 434 -106 70 -158 118 -158 146 0 15 -17 14 -22 -1 -3
-8 -26 0 -69 23 -119 66 -290 113 -444 123 -49 3 -144 13 -210 21 -117 15
-470 27 -570 19z m-2713 -1536 c-8 -8 -9 -4 -5 13 4 13 8 18 11 10 2 -7 -1
-18 -6 -23z m8 -4257 c0 -16 -8 -35 -17 -42 -15 -13 -16 -11 -10 20 4 18 7 40
7 48 0 8 5 11 10 8 6 -3 10 -19 10 -34z m20 -107 c0 -39 -18 -45 -38 -13 -11
18 -11 24 4 40 22 25 34 16 34 -27z"/>
</g>
</svg>
