<?xml version="1.0" standalone="no"?>
<!DOCTYPE svg PUBLIC "-//W3C//DTD SVG 20010904//EN"
 "http://www.w3.org/TR/2001/REC-SVG-20010904/DTD/svg10.dtd">
<svg version="1.0" xmlns="http://www.w3.org/2000/svg"
 width="1280.000000pt" height="960.000000pt" viewBox="0 0 1280.000000 960.000000"
 preserveAspectRatio="xMidYMid meet">
<metadata>
Created by potrace 1.15, written by Peter Selinger 2001-2017
</metadata>
<g transform="translate(0.000000,960.000000) scale(0.100000,-0.100000)"
fill="#ffc107" stroke="none">
<path d="M5014 7790 c-75 -15 -157 -65 -223 -135 -114 -122 -299 -388 -344
-494 -25 -57 -147 -246 -207 -320 -83 -101 -203 -230 -211 -225 -5 3 -36 45
-70 95 -95 138 -194 213 -297 226 -89 10 -140 -16 -321 -164 -59 -49 -116 -80
-292 -162 -116 -54 -201 -147 -282 -307 -20 -40 -41 -92 -48 -117 -7 -31 -29
-66 -66 -109 -120 -137 -183 -270 -183 -387 0 -116 20 -258 45 -319 37 -91 39
-125 15 -242 -12 -58 -24 -134 -25 -170 -2 -36 -10 -114 -19 -175 -46 -311
-45 -483 3 -690 46 -200 80 -285 189 -478 92 -163 103 -188 133 -305 23 -93
49 -161 94 -253 52 -104 63 -136 67 -192 6 -77 14 -64 -118 -217 -124 -145
-451 -456 -689 -655 -33 -27 -134 -115 -225 -195 -91 -80 -210 -179 -265 -220
-54 -41 -140 -110 -191 -153 -52 -43 -102 -81 -113 -85 -11 -4 -91 -66 -178
-138 -87 -71 -290 -226 -451 -343 -161 -118 -298 -221 -305 -230 -7 -9 -28
-27 -47 -40 -19 -14 -115 -94 -212 -180 l-178 -154 0 -129 0 -128 3065 0 3065
0 31 62 c17 33 53 119 80 191 59 152 115 268 211 429 38 64 84 151 103 192 19
41 56 98 83 128 104 115 260 366 297 479 l17 52 37 -69 c21 -38 66 -108 102
-155 179 -239 360 -524 412 -650 8 -20 20 -40 26 -43 6 -4 11 -16 11 -27 0
-27 79 -207 157 -357 35 -68 69 -148 75 -178 l11 -54 2508 0 2509 0 0 111 0
111 -162 220 c-90 121 -211 285 -270 364 -175 236 -269 375 -307 454 -19 41
-96 167 -170 280 -74 113 -155 240 -180 282 -25 42 -94 149 -154 237 -59 88
-136 208 -170 265 -85 143 -169 268 -237 351 -32 39 -83 115 -114 171 -65 116
-69 144 -35 258 26 87 55 128 141 197 37 30 86 79 109 109 24 30 84 98 134
150 78 83 99 112 158 226 37 73 67 138 67 147 0 8 9 35 20 60 11 25 36 107 55
182 30 117 36 161 41 289 6 144 5 154 -19 221 -19 52 -27 99 -32 185 -10 189
-12 207 -34 280 -12 38 -26 102 -31 142 -7 62 -5 84 15 162 31 116 46 242 36
286 -16 67 -59 171 -87 212 -77 110 -278 309 -375 370 -14 9 -42 46 -64 82
-49 84 -125 169 -178 200 -23 14 -91 43 -150 65 -60 21 -110 41 -111 43 -1 1
-15 24 -29 50 -31 54 -72 88 -142 119 -41 18 -61 21 -132 16 -124 -7 -173 -35
-310 -172 l-111 -113 -45 47 c-26 26 -89 121 -146 220 -158 271 -226 359 -386
496 -112 96 -225 158 -321 176 -90 17 -193 6 -267 -29 -141 -66 -204 -162
-216 -326 l-6 -91 -72 106 c-39 59 -97 134 -127 166 -124 134 -317 186 -492
132 -92 -28 -139 -56 -201 -121 -59 -63 -89 -117 -104 -187 l-10 -49 -47 20
c-94 42 -226 32 -340 -26 -99 -50 -185 -171 -208 -291 l-7 -39 -29 60 c-39 76
-88 127 -152 156 -43 19 -68 23 -162 23 l-112 0 -70 -48 c-68 -47 -71 -50
-148 -195 -88 -166 -189 -349 -258 -467 -52 -89 -176 -271 -176 -258 0 4 38
85 85 178 47 94 85 178 85 187 0 9 24 52 53 95 88 128 305 487 347 574 78 161
88 294 31 416 -78 165 -246 256 -442 239 -178 -16 -255 -84 -434 -384 -53 -90
-99 -161 -102 -159 -2 3 3 29 11 58 9 29 16 87 16 129 0 65 -5 85 -34 145 -82
172 -276 264 -472 225z m2073 -1435 c17 -33 65 -108 107 -166 42 -59 76 -110
76 -113 0 -3 -19 -6 -43 -6 -99 0 -213 -64 -253 -141 -16 -31 -34 -39 -34 -14
0 24 -56 80 -100 100 -22 10 -40 22 -40 27 0 5 23 51 51 101 72 131 126 262
140 342 l12 69 27 -69 c15 -39 40 -97 57 -130z m-64 -1766 c4 -41 14 -104 24
-140 16 -55 18 -107 17 -379 l0 -315 -25 -50 c-14 -27 -36 -78 -49 -112 -12
-35 -24 -63 -26 -63 -9 0 -34 62 -29 70 10 17 45 463 45 585 0 66 5 149 10
185 5 36 10 123 11 194 1 138 12 150 22 25z"/>
</g>
</svg>
