<?xml version="1.0" standalone="no"?>
<!DOCTYPE svg PUBLIC "-//W3C//DTD SVG 20010904//EN"
 "http://www.w3.org/TR/2001/REC-SVG-20010904/DTD/svg10.dtd">
<svg version="1.0" xmlns="http://www.w3.org/2000/svg"
 width="770.000000pt" height="1280.000000pt" viewBox="0 0 770.000000 1280.000000"
 preserveAspectRatio="xMidYMid meet">
<metadata>
Created by potrace 1.15, written by Peter Selinger 2001-2017
</metadata>
<g transform="translate(0.000000,1280.000000) scale(0.100000,-0.100000)"
fill="#ffc107" stroke="none">
<path d="M3405 12785 c-199 -36 -370 -155 -525 -365 -186 -252 -358 -806 -635
-2035 -35 -154 -63 -281 -62 -281 1 -1 54 45 117 103 303 277 564 441 850 537
249 83 413 105 855 112 576 11 890 -18 1480 -137 110 -22 234 -49 277 -60 42
-10 79 -19 82 -19 3 0 -14 33 -38 73 -82 138 -270 492 -347 652 -87 183 -131
283 -224 515 -193 481 -398 709 -732 814 -104 32 -166 42 -383 61 -96 9 -239
22 -317 30 -170 18 -302 18 -398 0z"/>
<path d="M3875 10488 c0 -99 -5 -140 -24 -208 -37 -130 -37 -136 2 -225 19
-44 38 -91 42 -105 4 -14 50 -113 102 -220 92 -191 198 -386 498 -923 33 -59
134 -241 225 -405 91 -163 195 -346 232 -407 36 -60 79 -137 96 -170 l30 -60
382 770 c538 1085 587 1188 610 1279 87 343 -138 549 -705 645 -219 37 -803
99 -1240 131 -77 5 -165 13 -195 16 l-55 5 0 -123z"/>
<path d="M3385 10531 c-254 -86 -515 -219 -717 -366 -125 -90 -342 -312 -417
-425 -247 -371 -383 -847 -342 -1190 26 -217 76 -355 225 -627 328 -599 1383
-2437 3123 -5438 417 -720 903 -1558 1079 -1862 175 -304 321 -552 324 -552 3
-1 37 79 77 177 85 209 253 621 421 1032 66 162 184 453 262 645 78 193 173
426 211 518 l69 168 -799 1397 c-1879 3288 -2826 4967 -3082 5467 -229 446
-339 757 -339 954 0 67 4 84 25 115 13 20 23 36 22 36 -1 -1 -65 -22 -142 -49z"/>
<path d="M2091 6787 c-585 -1215 -1323 -2787 -1977 -4209 l-114 -247 609
-1156 c334 -636 612 -1157 617 -1157 5 0 246 478 536 1063 291 585 695 1402
900 1814 204 413 480 968 612 1235 133 267 261 526 285 576 l44 92 -95 163
c-52 90 -218 378 -368 639 -150 261 -310 538 -355 615 -45 77 -180 311 -300
520 -119 209 -220 383 -223 387 -4 4 -81 -147 -171 -335z"/>
</g>
</svg>
