<?xml version="1.0" standalone="no"?>
<!DOCTYPE svg PUBLIC "-//W3C//DTD SVG 20010904//EN"
 "http://www.w3.org/TR/2001/REC-SVG-20010904/DTD/svg10.dtd">
<svg version="1.0" xmlns="http://www.w3.org/2000/svg"
 width="887.000000pt" height="1280.000000pt" viewBox="0 0 887.000000 1280.000000"
 preserveAspectRatio="xMidYMid meet">
<metadata>
Created by potrace 1.15, written by Peter Selinger 2001-2017
</metadata>
<g transform="translate(0.000000,1280.000000) scale(0.100000,-0.100000)"
fill="#ffc107" stroke="none">
<path d="M4165 12789 c-216 -23 -416 -76 -669 -176 -256 -101 -407 -203 -606
-409 -212 -220 -352 -425 -478 -699 -188 -410 -286 -755 -323 -1140 -14 -147
-6 -541 15 -705 111 -872 438 -1816 1073 -3099 105 -213 182 -379 179 -388
-10 -24 -196 -336 -369 -618 -704 -1144 -1478 -2266 -2666 -3860 -299 -401
-320 -433 -321 -472 l0 -41 62 -6 c35 -3 135 -8 223 -11 753 -25 865 -31 865
-48 0 -7 35 -140 78 -297 44 -157 112 -405 152 -553 l74 -267 42 0 43 0 118
173 c64 94 263 381 442 637 1115 1598 1694 2462 2241 3347 52 84 95 151 96
150 1 -1 85 -135 186 -297 563 -900 1032 -1599 2159 -3215 185 -264 384 -551
443 -637 l107 -158 43 0 42 0 74 268 c40 147 108 395 152 552 43 157 78 290
78 297 0 16 70 20 585 38 242 9 468 18 503 21 l62 6 0 40 c0 37 -24 72 -317
467 -1209 1626 -1955 2706 -2655 3841 -163 264 -374 619 -384 643 -3 10 66
161 179 389 540 1089 864 1957 1011 2713 58 298 76 457 82 745 11 437 -36 711
-206 1200 -134 386 -237 570 -469 840 -203 236 -375 381 -567 479 -91 46 -292
123 -304 116 -5 -3 -50 9 -100 25 -240 79 -427 110 -690 115 -107 2 -235 -1
-285 -6z m610 -1604 c128 -17 285 -47 375 -72 154 -42 250 -75 250 -86 0 -18
-38 -250 -56 -342 -104 -536 -311 -1162 -609 -1850 -95 -220 -297 -657 -301
-652 -9 8 -201 427 -286 622 -348 800 -558 1463 -658 2085 -11 69 -20 133 -20
142 0 40 432 141 715 167 136 13 444 6 590 -14z"/>
</g>
</svg>
